<?xml version="1.0" standalone="no"?>
<!DOCTYPE svg PUBLIC "-//W3C//DTD SVG 1.1//EN" "http://www.w3.org/Graphics/SVG/1.1/DTD/svg11.dtd" >
<svg xmlns="http://www.w3.org/2000/svg">
<metadata></metadata>
<defs>
<font id="computerfontregular" horiz-adv-x="1126" >
<font-face units-per-em="2048" ascent="1536" descent="-512" />
<missing-glyph horiz-adv-x="819" />
<glyph unicode="&#xd;" horiz-adv-x="819" />
<glyph unicode=" "  horiz-adv-x="819" />
<glyph unicode="&#x09;" horiz-adv-x="819" />
<glyph unicode="&#xa0;" horiz-adv-x="819" />
<glyph unicode="!" horiz-adv-x="552" d="M66 -33v135l69 70h273l69 -70v-135l-69 -69h-273zM66 377v680l69 69h137l70 -69v-275l135 -135v-270l-69 -70h-273z" />
<glyph unicode="&#x22;" horiz-adv-x="1171" d="M57 922v135l70 69h272l70 -69v-475h-135v270h-207zM606 922v135l70 69h270l70 -69v-477h-137v272h-203zM606 922v135l70 69h270l70 -69v-477h-137v272h-203z" />
<glyph unicode="#" d="M27 307v137h204v273h-204v137h204v205h140v-205h272v205h137v-205h205v-137h-205v-273h205v-137h-205v-205h-137v205h-272v-205h-140v205h-204zM371 444h272v273h-272v-273z" />
<glyph unicode="$" horiz-adv-x="1148" d="M49 106v201h137v-135h408v272h-473l-72 72v406l70 69h340v273h135v-273h340l72 -71v-203h-138v137h-544v-272h612l68 -68l2 -408l-72 -71h-338v-273h-139v273h-336z" />
<glyph unicode="%" horiz-adv-x="1464" d="M178 -33v545l70 70h885v544h137v-614l-70 -70h-612v-475l-70 -69h-270zM178 924v133l70 69h270l70 -69v-133l-70 -70h-270zM860 -33v135l70 70h270l70 -70v-135l-70 -69h-270z" />
<glyph unicode="&#x26;" horiz-adv-x="1386" d="M70 -31v678l137 137v273l69 69h480v-135h-277v-274h412v205h137v-205h205v-135h-205v-615l-70 -69h-817zM481 35h410v545h-410v-545z" />
<glyph unicode="'" horiz-adv-x="608" d="M82 922v137l68 67h272l67 -67v-342h-133v137h-206z" />
<glyph unicode="(" horiz-adv-x="788" d="M80 -170v1366l67 68h480v-138h-273v-342l138 -137v-749h135v-136h-480z" />
<glyph unicode=")" horiz-adv-x="788" d="M104 -102v-136h478l67 68v1364l-67 70h-478v-138h275v-342l-137 -137v-749h-138z" />
<glyph unicode="*" horiz-adv-x="1148" d="M37 444v273l139 71l-139 66v272h276v-272h133v410h138v-410h139v272h270v-272l-137 -66l137 -71v-273h-270v273h-139v-410h-138v410h-133v-273h-276z" />
<glyph unicode="+" horiz-adv-x="1306" d="M115 444v138h409v409h135v-409h410v-138h-410v-409h-135v409h-409z" />
<glyph unicode="," horiz-adv-x="608" d="M59 -31v133l70 70h270l70 -70v-477h-133v273h-205z" />
<glyph unicode="-" horiz-adv-x="856" d="M72 440v138h614v-138h-614z" />
<glyph unicode="." horiz-adv-x="608" d="M59 -31v131l72 72h266l72 -72v-131l-72 -71h-266z" />
<glyph unicode="/" horiz-adv-x="1441" d="M123 -31v541l72 72h882v544h135v-616l-65 -66h-615v-475l-71 -71h-266z" />
<glyph unicode="0" d="M27 -33v1090l69 69h817l70 -69v-1090l-70 -69h-817zM164 35h407v612l140 139v205h-547v-956z" />
<glyph unicode="1" horiz-adv-x="563" d="M47 -33v682l139 139v269l70 69h133l70 -69v-1090l-70 -69h-272z" />
<glyph unicode="2" d="M37 717v340l69 69h818l69 -69v-682l-67 -68h-480v-272h414v137h135v-207l-67 -67h-822l-67 67v410l70 69h612v547h-545v-274h-139z" />
<glyph unicode="3" d="M39 -33v340h135v-272h412v547h-412v135h412v274h-412v-137h-135v203l70 69h679l70 -69v-275l135 -135v-680l-69 -69h-815z" />
<glyph unicode="4" horiz-adv-x="1239" d="M27 375v684l67 67h819l68 -67v-615h135v-137h-135v-342l-68 -67h-272l-68 67v342h-479zM162 444h547v547h-547v-547z" />
<glyph unicode="5" d="M47 -33v340h135v-272h410v547h-475l-70 69v406l70 69h884v-135h-679v-274h612l70 -70v-680l-70 -69h-817z" />
<glyph unicode="6" d="M47 -33v1090l70 69h817l70 -69v-203h-271v137h-547v-274h750l68 -68v-682l-70 -69h-817zM184 35h412v547h-412v-547z" />
<glyph unicode="7" d="M27 854v203l69 69h815l70 -69v-1090l-70 -69h-268l-70 69v682l138 137v205h-547v-137h-137z" />
<glyph unicode="8" d="M27 -33v680l137 137v273l69 69h543l70 -69v-273l137 -137v-680l-70 -69h-817zM164 35h407v547h-407v-547zM301 717h270v274h-270v-274z" />
<glyph unicode="9" d="M27 377v680l69 69h817l70 -69v-1090l-70 -69h-272l-70 69v340h-475zM164 444h547v547h-547v-547z" />
<glyph unicode=":" horiz-adv-x="608" d="M80 -33v135l70 70h270l69 -70v-135l-69 -69h-270zM80 651v133l70 70h270l69 -70v-133l-69 -69h-270z" />
<glyph unicode=";" horiz-adv-x="608" d="M72 -33v135l69 70h271l69 -70v-477h-135v273h-205zM72 651v133l69 70h271l69 -70v-133l-69 -69h-271z" />
<glyph unicode="&#x3c;" horiz-adv-x="1193" d="M66 582l548 544h410l-614 -614l614 -614h-410l-546 546z" />
<glyph unicode="=" horiz-adv-x="1216" d="M166 307v137h819v-137h-819zM166 582v135h819v-135h-819z" />
<glyph unicode="&#x3e;" horiz-adv-x="1193" d="M66 -102h409l547 546v136l-547 546h-409l614 -614z" />
<glyph unicode="?" d="M49 854v205l68 67h819l68 -67v-412l-66 -65h-344v-207l-68 -68h-272l-70 70v270l70 70h477v274h-547v-137h-135zM184 -33v135l70 70h272l68 -68v-139l-68 -67h-272z" />
<glyph unicode="@" horiz-adv-x="1441" d="M57 -31v1086l72 71h1090l67 -67v-819l-67 -68h-682l-70 70v542l70 70h411l68 -68v-479h135v682h-954v-342l137 -137v-475h952v-137h-1157zM606 309h271v408h-271v-408z" />
<glyph unicode="A" d="M31 -35v684l137 137v273l68 67h544l70 -69v-271l137 -137v-751h-137v684h-412v-617l-67 -67h-273zM438 717h277v274h-277v-274z" />
<glyph unicode="B" horiz-adv-x="1161" d="M49 -33l70 -69h815l70 69l2 682l-136 135v273l-69 69h-682l-70 -69v-1090zM322 717v274h411v-274h-411zM457 35v547h413v-547h-413z" />
<glyph unicode="C" horiz-adv-x="1183" d="M80 -33v1090l70 69h817l69 -69v-203h-137v137h-547v-207l135 -137v-612h412v137h135v-205l-69 -69h-815z" />
<glyph unicode="D" horiz-adv-x="1171" d="M53 -31v1086l72 71h811l72 -71v-1086l-72 -71h-811zM328 784l135 -135v-614h409v956h-544v-207z" />
<glyph unicode="E" horiz-adv-x="1036" d="M70 -33v1090l69 69h748v-135h-545v-274h545v-135h-408v-547h408v-137h-748z" />
<glyph unicode="F" horiz-adv-x="980" d="M47 -33v1090l70 69h749v-135h-542v-274h542v-135h-407v-615l-70 -69h-272z" />
<glyph unicode="G" horiz-adv-x="1161" d="M68 -31v1086l71 71h815l72 -71v-201h-137v137h-549v-266l133 -92v-598h416v598h-287v92h307l117 -92v-664l-72 -71h-815z" />
<glyph unicode="H" horiz-adv-x="1171" d="M80 -33v1090l70 69h135l69 -69v-340h545v409h137v-1228h-137v684h-412v-617l-67 -67h-270z" />
<glyph unicode="I" horiz-adv-x="563" d="M78 1057l69 69h136l69 -69v-273l137 -137v-680l-69 -69h-270l-70 69z" />
<glyph unicode="J" horiz-adv-x="1148" d="M45 307h139v-270h408v1020l70 69h135l69 -69v-273l135 -135v-682l-69 -69h-815l-70 69z" />
<glyph unicode="K" d="M39 -33v1090l70 69h133l69 -69v-340h412v409h135v-342l135 -137v-749h-135v684h-409v-615l-70 -69h-270z" />
<glyph unicode="L" horiz-adv-x="991" d="M49 -33v1090l70 69h135l68 -67v-275l135 -135v-614h409v-137h-747z" />
<glyph unicode="M" horiz-adv-x="1622" d="M59 -33v1090l70 69h612l70 -69l70 69h473l69 -69v-1092l-67 -67h-135l-68 67v1026h-274v-1093h-138v1093h-407v-209l133 -133v-684l-68 -67h-270z" />
<glyph unicode="N" horiz-adv-x="1148" d="M59 -35v1092l70 69h817l70 -69v-1159h-137v1093h-545v-209l133 -133v-684l-68 -67h-272z" />
<glyph unicode="O" horiz-adv-x="1138" d="M49 -33v1090l70 69h815l70 -69v-1090l-70 -69h-815zM186 35h547v614l-139 139v203h-408v-956z" />
<glyph unicode="P" horiz-adv-x="968" d="M39 -33v1090l70 69h679l70 -69v-406l-70 -69h-339v-615l-70 -69h-273zM311 717h412v274h-412v-274z" />
<glyph unicode="Q" horiz-adv-x="1148" d="M49 -33v1090l70 69h815l70 -69v-1090l-70 -69h-815zM184 35h275v203l69 69h205v684h-549v-956z" />
<glyph unicode="R" horiz-adv-x="1138" d="M59 -33v1090l70 69h680l70 -69v-275l135 -133v-751h-133v684h-414v-615l-70 -69h-268zM334 717h409v274l-409 -2v-272z" />
<glyph unicode="S" d="M39 -33v205h135v-137h412v547h-477l-70 69v406l70 69h815l69 -69v-203h-133v137h-547v-274h611l69 -70v-680l-69 -69h-815z" />
<glyph unicode="T" horiz-adv-x="923" d="M12 991v135h819v-135h-270v-207l135 -135v-682l-69 -69h-269l-69 69v1024h-277z" />
<glyph unicode="U" horiz-adv-x="1148" d="M59 -33v1090l72 69h131l70 -69v-273l135 -135v-614h414v1091h133v-1159l-70 -69h-815z" />
<glyph unicode="V" horiz-adv-x="1148" d="M59 377v680l70 69h268l70 -69v-1022h276v342l138 137v612h133v-749l-135 -135v-275l-70 -69h-543l-69 69v273z" />
<glyph unicode="W" horiz-adv-x="1576" d="M39 -33v1090l70 69h133l69 -69v-271l138 -137v-614h274v1091h137v-1091h273v1022l69 69h131l70 -69v-1090l-70 -69h-1224z" />
<glyph unicode="X" horiz-adv-x="1138" d="M59 -33v615l68 67l-68 68v340l70 69h135l70 -69v-340h545v409h137v-409l-68 -68l68 -67v-684h-137v684h-412v-615l-70 -69h-268z" />
<glyph unicode="Y" horiz-adv-x="1103" d="M27 651v475h137v-409h684v409h133v-477l-68 -67h-204v-615l-70 -69h-268l-70 69v615h-205z" />
<glyph unicode="Z" d="M59 -33v678l611 346h-475v-137h-136v205l68 67h819l70 -69v-68l-549 -344v-63v-547h414v272h133v-340l-70 -69h-815z" />
<glyph unicode="[" horiz-adv-x="698" d="M135 -307v1638l70 70h340v-137h-275v-1502h275v-137h-342z" />
<glyph unicode="\" horiz-adv-x="1441" d="M109 514v612h135v-544h886l70 -70v-614h-409l2 546h-615z" />
<glyph unicode="]" horiz-adv-x="698" d="M82 -238h274v1502h-274v137h338l69 -70v-1638l-67 -68h-340v137z" />
<glyph unicode="^" horiz-adv-x="720" d="M49 854v342l68 68h409l68 -68v-342h-133v272h-277v-272h-135z" />
<glyph unicode="_" d="M0 -33h1092v-69h-1092v69z" />
<glyph unicode="`" horiz-adv-x="698" d="M102 1126v138h340l70 -70v-340h-133v272h-277z" />
<glyph unicode="a" horiz-adv-x="946" d="M27 -33v408l69 69h477v273h-411v-135h-135v204l67 68h547l68 -68v-276l135 -135v-408l-70 -69h-678zM299 35h274v272h-274v-272z" />
<glyph unicode="b" horiz-adv-x="968" d="M47 -33v1090l70 69h133l69 -69v-203h476l69 -70v-817l-69 -69h-678zM319 510l136 -135v-340h276v682h-412v-207z" />
<glyph unicode="c" horiz-adv-x="962" d="M39 -33v817l70 70h679l70 -70v-202h-137v135h-410v-205l135 -135v-342h277v137h133v-205l-70 -69h-677z" />
<glyph unicode="d" horiz-adv-x="980" d="M29 -33l69 -69h680l70 69v1092l-68 67h-135l-70 -69v-203h-477l-69 -70v-817zM166 35v682h409v-205l-137 -137v-340h-272z" />
<glyph unicode="e" horiz-adv-x="968" d="M39 -33v819l67 68h682l68 -68v-411l-68 -68h-342v-272h275v137h137v-205l-70 -69h-679zM311 444h410v273h-410v-273z" />
<glyph unicode="f" horiz-adv-x="675" d="M12 717v137h140v205l67 67h342v-135h-272v-137h272v-137h-137v-207l135 -135v-408l-70 -69h-268l-69 69v750h-140z" />
<glyph unicode="g" horiz-adv-x="968" d="M45 -375h684v273h-612l-70 69v817l70 70h680l67 -68v-1228l-69 -70h-750v137zM319 512l136 -135v-342h274v682h-410v-205z" />
<glyph unicode="h" horiz-adv-x="958" d="M27 -33v1090l69 69h133l70 -69l2 -203h475l70 -72v-884h-139v819h-408v-205l135 -135v-410l-69 -69h-269z" />
<glyph unicode="i" horiz-adv-x="440" d="M47 987v94l25 25h135l24 -25v-94l-24 -24h-135zM72 -33v887h135v-342l137 -137v-408l-70 -69h-133z" />
<glyph unicode="j" horiz-adv-x="440" d="M12 -375h207v205l-137 137v887h137v-342l135 -135v-819l-69 -70h-273v137zM47 987v94l25 25h135l24 -25v-94l-24 -24h-135z" />
<glyph unicode="k" horiz-adv-x="946" d="M25 -31v1086l71 71h133l72 -71v-611h270v410h138v-342l135 -135v-479h-133v409h-275v-338l-71 -71h-269z" />
<glyph unicode="l" horiz-adv-x="507" d="M27 -33v1090l69 69h133l70 -69v-545l135 -135v-410l-69 -69h-269z" />
<glyph unicode="m" horiz-adv-x="1521" d="M16 -33v817l70 70h1225l69 -70v-886h-135v819h-409v-205l135 -135v-410l-70 -69h-131l-70 69l-2 750h-409v-205l135 -135v-410l-70 -69h-268z" />
<glyph unicode="n" horiz-adv-x="946" d="M27 -33v817l69 70h678l70 -70l2 -886h-137v819h-410v-207l135 -135v-408l-69 -69h-269z" />
<glyph unicode="o" horiz-adv-x="946" d="M25 -33v817l69 70h678l70 -70v-817l-70 -69h-678zM299 510l133 -133v-342h275v682h-408v-207z" />
<glyph unicode="p" horiz-adv-x="958" d="M37 -512h139v410h610l72 71v815l-70 70h-682l-69 -70v-1296zM311 512v205h410v-682h-272v340z" />
<glyph unicode="q" horiz-adv-x="958" d="M25 -31v813l71 72h678l72 -72v-1294h-135v410h-615zM299 510l135 -135v-340h275v682h-410v-207z" />
<glyph unicode="r" horiz-adv-x="778" d="M27 -33v817l69 70h613v-137h-410v-205l135 -135v-410l-69 -69h-269z" />
<glyph unicode="s" horiz-adv-x="968" d="M37 -33v205h137v-137h270v272h-338l-69 70v407l69 70h680l70 -70v-202h-135v135h-410v-273h475l70 -69v-408l-70 -69h-680z" />
<glyph unicode="t" horiz-adv-x="643" d="M2 717v137h139v272h138v-272h272v-137h-137v-205l137 -137l-2 -408l-70 -69h-268l-70 69v750h-139z" />
<glyph unicode="u" horiz-adv-x="958" d="M37 -33v817l69 70h134l69 -70v-272l137 -137v-340h273v819h137v-887l-70 -69h-680z" />
<glyph unicode="v" horiz-adv-x="968" d="M25 377v407l69 70h273l69 -70v-749h137v203l138 137v479h133v-616l-135 -136v-135l-70 -69h-406l-69 69v271z" />
<glyph unicode="w" horiz-adv-x="1554" d="M27 -33v817l69 70h133l70 -70v-272l137 -137v-340h275v819h135v-342l135 -135v-342h274v819h136v-887l-70 -69h-1225z" />
<glyph unicode="x" horiz-adv-x="968" d="M25 782l71 72h133l70 -70v-340h410v410h137v-412l-68 -67l68 -68v-409h-135v409h-275v-340l-69 -69h-271l-69 69v340l67 68l-67 67z" />
<glyph unicode="y" horiz-adv-x="958" d="M25 -33v817l69 70h273l69 -70v-411l-137 -137v-201h410v819h137v-1296l-70 -70h-751v137h684v273h-615z" />
<glyph unicode="z" horiz-adv-x="946" d="M25 -33v408l522 342h-383v-135h-139v202l69 70h682l70 -70v-114l-410 -295v-68v-272h273v137h137v-205l-70 -69h-682z" />
<glyph unicode="{" horiz-adv-x="765" d="M92 442v140h135v610l72 72h340v-68h-137v-1366h137v-70h-340l-72 72v610h-135z" />
<glyph unicode="|" horiz-adv-x="698" d="M260 1264h139v-1504h-137z" />
<glyph unicode="}" horiz-adv-x="765" d="M57 -170v-70h342l70 70v612h135v140h-135v610l-70 70h-342v-66h138v-1366h-138z" />
<glyph unicode="~" horiz-adv-x="1036" d="M70 852v205l69 69h412l70 -69v-66h133v135h137v-204l-70 -70h-409l-70 70v67h-131v-137h-141z" />
<glyph unicode="&#xa1;" horiz-adv-x="440" d="M4 924v133l70 69h202l68 -67v-137l-68 -68h-202zM72 -33v750h135v-240l139 -108v-402l-70 -69h-135z" />
<glyph unicode="&#xa2;" horiz-adv-x="1003" d="M59 375v682l70 69h272v138h136v-138h270l70 -69v-203h-134v137h-204v-547h204v138h136v-207l-68 -68h-274v-135h-138v135h-272zM195 784l137 -137v-203h69v547h-206v-207z" />
<glyph unicode="&#xa3;" horiz-adv-x="1171" d="M51 444v138h275v477l67 67h410l69 -69v-203h-137v137h-139v-409h276v-138h-276v-409h276v137h136v-203l-72 -71h-676l-72 71v475h-137z" />
<glyph unicode="&#xa5;" horiz-adv-x="1239" d="M92 35v137h275v135h-275v137h275v138h-207l-68 67v477h135v-409h686v409h134v-477l-68 -67h-203v-138h271v-137h-271v-135h271v-137h-271v-68l-69 -69h-273l-67 69v68h-275z" />
<glyph unicode="&#xa7;" horiz-adv-x="946" d="M102 -102h138v-136h274v410h-342l-68 68v954l70 70h543l69 -70v-203h-135v135h-274v-409h340l67 -68v-956l-67 -68h-545l-70 70v203zM240 307h411v275h-411v-275z" />
<glyph unicode="&#xa8;" horiz-adv-x="968" d="M18 922v137l68 67h205l67 -67v-137l-67 -68h-205zM496 922v137l67 67h205l68 -67v-137l-68 -68h-205z" />
<glyph unicode="&#xa9;" horiz-adv-x="788" d="M72 582v477l67 67h479l68 -67v-477l-70 -70h-475zM141 582h475v477h-475v-477zM207 649v342h342v-137h-68v68h-135v-205h135v69h68v-137h-342z" />
<glyph unicode="&#xaa;" horiz-adv-x="946" d="M27 -33v410l71 69h475v271h-409v-137h-137v206l69 68h547l68 -68v-337l137 -101v-381l-70 -69h-682zM27 -195h821v-69h-821v69zM303 37h270v270h-270v-270z" />
<glyph unicode="&#xab;" horiz-adv-x="1284" d="M59 307v137l410 410h203v-68l-340 -342h-68v-137h68l340 -340v-69h-203zM469 307v137l410 410h202v-68l-338 -342h-69v-137h67l340 -340v-69h-202z" />
<glyph unicode="&#xac;" horiz-adv-x="856" d="M57 444v138h613l69 -70v-340h-133v272h-549z" />
<glyph unicode="&#xad;" horiz-adv-x="856" d="M72 440v138h614v-138h-614z" />
<glyph unicode="&#xae;" horiz-adv-x="833" d="M72 582v477l67 67h477l68 -67v-481l-66 -66h-477zM141 582h477v477h-477v-477zM207 649h137v137h135v-137h72v205l-70 70v67h-274v-342zM344 854v68h68v-68h-68z" />
<glyph unicode="&#xb0;" horiz-adv-x="698" d="M59 649v410l68 67h410l67 -67v-410l-67 -67h-410zM197 717h272v274h-272v-274z" />
<glyph unicode="&#xb1;" horiz-adv-x="1081" d="M135 35h682v-137h-682v137zM135 444v138h271v272h137v-272h274v-138h-274v-272h-135v272h-273z" />
<glyph unicode="&#xb4;" horiz-adv-x="698" d="M133 717v340l70 69h340v-135h-271v-274h-139z" />
<glyph unicode="&#xb5;" horiz-adv-x="1171" d="M37 -238h137v1024l68 68h135l67 -68v-274l138 -137v-340h276v819h135v-889l-67 -67h-617v-203l-69 -70h-203v137z" />
<glyph unicode="&#xb6;" horiz-adv-x="1171" d="M59 514v543l70 69h815l70 -69v-1159h-133v1093h-138v-1093h-139v546h-475zM334 582h270v409h-270v-409z" />
<glyph unicode="&#xba;" horiz-adv-x="968" d="M49 -31v813l72 72h676l71 -72v-813l-71 -71h-676zM49 -203h819v-80h-819v80zM324 510l135 -135v-340h272v682h-407v-207z" />
<glyph unicode="&#xbb;" horiz-adv-x="1284" d="M72 -33v-69h202l410 409v137l-410 410h-202v-68l338 -342h69v-137h-67zM481 -33v-69h203l410 409v137l-410 410h-203v-68l340 -342h68v-137h-68z" />
<glyph unicode="&#xbf;" horiz-adv-x="1058" d="M90 -33v680l70 70h133l69 -70v-612h412v137h133v-205l-69 -69h-678zM90 924v133l70 69h200l70 -69v-133l-70 -70h-200z" />
<glyph unicode="&#xc0;" d="M31 -35v684l137 137v273l68 67h544l70 -69v-271l137 -137v-751h-137v684h-412v-617l-67 -67h-273zM166 1401h274v-137h135v204l-67 68h-342v-135zM438 717h277v274h-277v-274z" />
<glyph unicode="&#xc1;" horiz-adv-x="1689" d="M193 215v1169l49 50h1050l49 -50v-1167l-69 -70v-178h-1012v178zM223 246l68 -68h950l70 70v1108l-47 47h-994l-47 -47v-1110zM291 0h950v147h-950v-147zM334 737v484l57 57h758l57 -57v-484l-57 -57h-758zM365 758l47 -47h716l48 47v442l-48 47h-716l-47 -47v-442z M504 1122l24 25v-49zM504 1122l24 25h25l25 -25l-25 -24h-25zM504 1122l24 25l-24 -25l24 -24zM662 752l81 266h17l-51 -230l41 13l-5 -27zM803 461v31h244v20h124v-72h-124v21h-244zM963 1122l24 25h25l24 -25l-24 -24h-25z" />
<glyph unicode="&#xc2;" horiz-adv-x="1576" d="M66 35v67l409 410h70v750l69 141l103 72l98 -72l72 -141v-748h67l408 -410v-69h-1296zM125 -479l47 49l51 -51l-49 -47zM205 102h340v340h-68zM256 -340l47 49l51 -51l-49 -47zM393 -205l47 49l52 -51l-50 -47zM395 -477l47 49l52 -51l-50 -47zM461 -340l47 49l51 -51 l-49 -47zM532 -203l48 49l51 -51l-49 -47zM598 -66l47 50l51 -52l-49 -47zM614 102h203v1158l-67 137l-33 26l-35 -26l-68 -137v-1158zM666 -203l47 49l51 -51l-49 -47zM666 -479l47 49l51 -51l-49 -47zM668 -338l47 49l51 -51l-49 -47zM733 -66l47 50l51 -52l-49 -47z M803 -205l47 49l51 -51l-49 -47zM870 -338l48 49l51 -51l-49 -47zM887 102h340l-277 340h-63v-340zM940 -479l47 49l51 -51l-49 -47zM942 -207l47 49l51 -51l-49 -47zM1079 -340l47 49l52 -51l-50 -47zM1214 -479l48 49l51 -51l-49 -47z" />
<glyph unicode="&#xc3;" d="M29 1264v202l69 70h408l69 -70v-65h138v135h137v-203l-70 -69h-407l-70 69v68h-137v-137h-137zM31 -35v684l137 137v273l68 67h544l70 -69v-271l137 -137v-751h-137v684h-412v-617l-67 -67h-273zM438 717h277v274h-277v-274z" />
<glyph unicode="&#xc4;" d="M23 -33v682l137 137v271l69 69h543l70 -69v-273l137 -135v-751h-137v684h-412v-615l-70 -69h-268zM90 1331v133l72 72h198l72 -72v-133l-72 -71h-198zM432 717h273v274h-273v-274zM569 1333v133l70 70h203l69 -70v-135l-67 -67h-205z" />
<glyph unicode="&#xc5;" d="M47 -33v680l135 135v207l70 70h545l69 -70v-207l135 -135l3 -749h-136v684h-413v-615l-70 -69h-268zM319 1198v266l72 72h268l72 -72v-266l-72 -72h-268zM455 1264h139v137h-139v-137zM457 717h272v205h-272v-205z" />
<glyph unicode="&#xc6;" horiz-adv-x="1734" d="M37 -31v678l139 139v273l68 67h1296v-135h-547v-274h547v-135h-410v-547h410v-137h-614l-70 69l2 615h-412v-615l-69 -69h-268zM446 717h277v274h-277v-274z" />
<glyph unicode="&#xc7;" horiz-adv-x="1183" d="M49 -33v1090l70 69h817l70 -69v-203h-138v137h-546v-207l135 -135v-614h413v137h134v-205l-70 -69h-201v-340l-69 -70h-342v137h272v273h-475z" />
<glyph unicode="&#xc8;" horiz-adv-x="2648" d="M143 440q0 72 68 109t154 37h1683v-170h258v-35h-258v-453h-1710v361q-66 10 -96 22q-98 41 -99 129zM184 440q0 -49 50.5 -80.5t138.5 -31.5h1495v223h-1503q-76 0 -128.5 -34t-52.5 -77zM373 -37h1640v588h-110v-258h-1530v-330z" />
<glyph unicode="&#xc9;" horiz-adv-x="1036" d="M57 -33v1090l70 69h747v-135h-544v-274h544v-135h-407v-547h407v-137h-747zM330 1264v202l69 70h342v-137h-274v-135h-137z" />
<glyph unicode="&#xca;" horiz-adv-x="1689" d="M193 215v1169l49 50h1050l49 -50v-1167l-69 -70v-178h-1012v178zM223 246l68 -68h950l70 70v1108l-47 47h-994l-47 -47v-1110zM291 0h950v147h-950v-147zM334 737v484l57 57h758l57 -57v-484l-57 -57h-758zM365 758l47 -47h716l48 47v442l-48 47h-716l-47 -47v-442z M803 461v31h244v20h124v-72h-124v21h-244z" />
<glyph unicode="&#xcb;" horiz-adv-x="1689" d="M193 215v1169l49 50h1050l49 -50v-1167l-69 -70v-178h-1012v178zM223 246l68 -68h950l70 70v1108l-47 47h-994l-47 -47v-1110zM291 0h950v147h-950v-147zM334 737v484l57 57h758l57 -57v-484l-57 -57h-758zM365 758l47 -47h716l48 47v442l-48 47h-716l-47 -47v-442z M657 901v105l54 53h55v43h129v-12h-111v-31h56l53 -53v-105l-53 -53h-129zM803 461v31h244v20h124v-72h-124v21h-244zM836 1155l6 6l28 -28l-6 -7zM893 1135v41h8v-41h-8zM920 1067l6 6l26 -26l-6 -7zM928 1133l28 28l7 -6l-29 -29zM948 1092v8h41v-8h-41z" />
<glyph unicode="&#xcd;" horiz-adv-x="2050" d="M8 -516l606 -279l-57 287l205 -369v361h115v-361h98v361h106v-361l238 369l-49 -303l581 295l-475 -402l484 58l-320 -107l90 -49h-1294l74 49l-402 90l549 -32zM92 -74l520 518v342l70 338l66 273l172 172l155 -156l84 -289l70 -338v-340l520 -520l-657 -368h-342z M236 -68l444 -237v223h70v731h69v-733h66v1212h71v-1212h66v733h70v-733h67v-221l191 96l260 135l-451 453v403l-72 342l-67 273l-100 96l-99 -96l-69 -273l-70 -342v-403zM752 -102v-273h133v203h-68v70h-65zM956 -172v-203h134v273h-66v-70h-68z" />
<glyph unicode="&#xce;" horiz-adv-x="1576" d="M100 0v950l74 74h1098l74 -74v-950l-72 -72h-1102zM135 20l58 -57h94v549l35 35h804l35 -35v-549h82l68 68v899l-60 59h-270v-295h-514v295h-266l-66 -65v-904zM322 -37h804v531l-20 18h-760l-24 -25v-524zM776 729h170v260h-170v-260z" />
<glyph unicode="&#xd1;" horiz-adv-x="1148" d="M45 -33v1088l70 71h815l71 -71v-1157h-141v1093h-545v-264l136 -92v-666l-70 -71h-266zM182 1264v202l70 70h410l67 -68v-67h137v135h135v-203l-69 -69h-408l-69 69v66h-136v-135h-137z" />
<glyph unicode="&#xd5;" horiz-adv-x="1138" d="M49 -31v1086l74 71h813l72 -71l2 -1086l-74 -71h-813zM51 1264v202l70 70h407l70 -70v-65h137v135h137v-203l-69 -69h-408l-69 69v68h-138v-137h-137zM190 37h543v608l-135 137v209h-408v-954z" />
<glyph unicode="&#xd6;" horiz-adv-x="1138" d="M35 -31v1086l74 71h813l71 -71l2 -1086l-73 -71h-813zM106 1333v135l68 68h205l67 -68v-137l-67 -67h-203zM176 37h543v608l-135 137v209h-408v-954zM586 1335v133l67 68h203l72 -72v-129l-72 -71h-199z" />
<glyph unicode="&#xd8;" horiz-adv-x="1757" d="M66 -18v200l294 193v682l70 69h819l68 -67v-107l242 158v-201l-242 -159v-785l-68 -67h-817l-70 69v199zM498 35h409v461l-409 -252v-209zM500 453l547 335v203h-547v-538z" />
<glyph unicode="&#xdc;" horiz-adv-x="1148" d="M45 -31v1086l72 71h133l72 -71v-338l135 -72v-610h409v1091h138v-1157l-72 -71h-815zM117 1333v133l69 70h199l70 -70v-133l-70 -69h-199zM594 1333v133l70 70h200l70 -70v-133l-70 -69h-200z" />
<glyph unicode="&#xdf;" horiz-adv-x="1093" d="M25 -31v1088l69 69h682l70 -69v-271l137 -137v-682l-70 -69h-342v137h277v547h-277v135h138v274h-408v-481l135 -135v-477h-340z" />
<glyph unicode="&#xe0;" horiz-adv-x="946" d="M14 -33v408l70 69h477v273h-411v-135h-136v204l68 68h547l67 -68v-276l135 -135v-408l-69 -69h-678zM150 1126v138h342l69 -70v-203h-137v135h-274zM287 35h274v272h-274v-272z" />
<glyph unicode="&#xe1;" horiz-adv-x="946" d="M29 -33v408l69 69h477v273h-411v-135h-135v204l67 68h547l68 -68v-276l135 -135v-408l-70 -69h-678zM301 35h274v272h-274v-272zM301 991v203l70 70h340v-138h-273v-135h-137z" />
<glyph unicode="&#xe2;" horiz-adv-x="946" d="M14 -33v408l70 69h477v273h-411v-135h-136v204l68 68h547l67 -68v-276l135 -135v-408l-69 -69h-678zM150 991v203l69 70h408l69 -70v-203h-137v135h-270v-135h-139zM287 35h274v272h-274v-272z" />
<glyph unicode="&#xe3;" horiz-adv-x="946" d="M14 -33v408l70 69h477v273h-411v-135h-136v204l68 68h547l67 -68v-276l135 -135v-408l-69 -69h-678zM14 991v203l70 70h410l67 -68v-70h137v138h136v-205l-68 -68h-410l-67 68v67h-137v-135h-138zM287 35h274v272h-274v-272z" />
<glyph unicode="&#xe4;" horiz-adv-x="946" d="M12 1059v137l72 68h205l67 -68v-137l-67 -68h-209zM14 -33v408l70 69h477v273h-411v-135h-136v204l68 68h547l67 -68v-276l135 -135v-408l-69 -69h-678zM287 35h274v272h-274v-272zM494 1059v137l67 68h203l67 -68v-137l-67 -68h-203z" />
<glyph unicode="&#xe5;" horiz-adv-x="946" d="M27 -33v408l69 69h477v273h-411v-135h-135v204l67 68h547l68 -68v-276l135 -135v-408l-70 -69h-678zM231 1059v272l70 70h268l70 -70v-272l-70 -70h-268zM299 35h274v272h-274v-272zM369 1126h137v136h-137v-136z" />
<glyph unicode="&#xe6;" horiz-adv-x="1554" d="M27 -33v408l69 69h477v273h-409v-135h-137v202l69 70h545l35 -70l35 70h610l70 -70v-409l-68 -68h-342v-272h276v137h134v-205l-70 -69h-543l-35 69l-34 -69h-613zM299 35h274v272h-274v-272zM846 444h411v273h-411v-273z" />
<glyph unicode="&#xe7;" horiz-adv-x="974" d="M47 -35v801l59 100l695 -6l67 -69v-211h-137v137h-407v-207l135 -135v-340h272v137h135v-207l-67 -67h-205v-340l-70 -70h-202v137h137v273h-344z" />
<glyph unicode="&#xe8;" horiz-adv-x="968" d="M23 -33v819l67 68h682l68 -68v-411l-68 -68h-342v-272h275v137h137v-205l-70 -69h-680zM160 1126v138h342l67 -68v-205h-139v135h-270zM295 444h410v273h-410v-273z" />
<glyph unicode="&#xe9;" horiz-adv-x="968" d="M29 -33v819l67 68h682l68 -68v-411l-68 -68h-342v-272h275v137h137v-205l-70 -69h-680zM301 444h410v273h-410v-273zM301 991v203l70 70h342v-138h-275v-135h-137z" />
<glyph unicode="&#xea;" horiz-adv-x="968" d="M29 -33v819l67 68h682l68 -68v-411l-68 -68h-342v-272h275v137h137v-205l-70 -69h-680zM166 991v203l70 70h407l70 -70v-203h-138v135h-272v-135h-137zM301 444h410v273h-410v-273z" />
<glyph unicode="&#xeb;" horiz-adv-x="968" d="M23 -33v819l67 68h682l68 -68v-411l-68 -68h-342v-272h275v137h137v-205l-70 -69h-680zM23 1061v133l69 70h203l70 -70v-133l-70 -70h-203zM295 444h410v273h-410v-273zM502 1061v133l69 70h201l70 -70v-133l-70 -70h-201z" />
<glyph unicode="&#xec;" horiz-adv-x="507" d="M16 1126v138h340l68 -68v-205h-135v135h-273zM152 -33v887h135v-342l137 -137v-408l-70 -69h-133z" />
<glyph unicode="&#xed;" horiz-adv-x="507" d="M39 -33v887h135v-342l137 -137v-408l-69 -69h-133zM39 991v203l70 70h340v-138h-273v-135h-137z" />
<glyph unicode="&#xee;" horiz-adv-x="598" d="M0 991v203l70 70h405l70 -70v-203h-135v135h-275v-135h-135zM137 -33v887h135v-342l138 -137v-408l-70 -69h-133z" />
<glyph unicode="&#xef;" horiz-adv-x="710" d="M23 1059v135l69 70h133l70 -70v-135l-68 -68h-137zM215 -33v887h135v-342l137 -137v-408l-69 -69h-133zM362 1059v135l70 70h133l70 -70v-135l-68 -68h-137z" />
<glyph unicode="&#xf1;" horiz-adv-x="946" d="M29 -33v817l69 70h678l70 -70l2 -886h-137v819h-410v-207l135 -135v-408l-69 -69h-269zM29 991v205l67 68h410l67 -68v-70h138v138h135v-205l-68 -68h-407l-68 68v67h-137v-135h-137z" />
<glyph unicode="&#xf2;" horiz-adv-x="946" d="M14 -33v817l70 70h678l69 -70v-817l-69 -69h-678zM150 1126v138h342l67 -68v-205h-135v135h-274zM289 510l133 -133v-342h274v682h-407v-207z" />
<glyph unicode="&#xf3;" horiz-adv-x="946" d="M14 -33v817l70 70h678l69 -70v-817l-69 -69h-678zM287 991v203l69 70h340v-138h-274v-135h-135zM289 510l133 -133v-342h274v682h-407v-207z" />
<glyph unicode="&#xf4;" horiz-adv-x="946" d="M23 -33v817l69 70h678l70 -70v-817l-70 -69h-678zM158 991v203l69 70h408l70 -70v-203h-136v135h-274v-135h-137zM297 510l133 -133v-342h275v682h-408v-207z" />
<glyph unicode="&#xf5;" horiz-adv-x="946" d="M14 -33v817l70 70h678l69 -70v-817l-69 -69h-678zM14 991v203l70 70h410l67 -68v-70h137v138h133v-205l-67 -68h-408l-67 68v67h-137v-135h-138zM289 510l133 -133v-342h274v682h-407v-207z" />
<glyph unicode="&#xf6;" horiz-adv-x="946" d="M14 -33v817l70 70h678l69 -70v-817l-69 -69h-678zM14 1059v137l68 68h207l67 -68v-137l-67 -68h-207zM289 510l133 -133v-342h274v682h-407v-207zM494 1059v137l67 68h203l67 -68v-137l-67 -68h-203z" />
<glyph unicode="&#xf7;" d="M70 444v138h888v-138h-888zM344 104v134l70 69h202l70 -69v-134l-70 -69h-202zM344 786v136l70 69h202l70 -69v-136l-70 -69h-202z" />
<glyph unicode="&#xf9;" horiz-adv-x="958" d="M39 -33v817l70 70h133l69 -70v-272l138 -137v-340h272v819h137v-887l-70 -69h-679zM313 1126v138h340l70 -70v-203h-139v135h-271z" />
<glyph unicode="&#xfa;" horiz-adv-x="958" d="M37 -33v817l69 70h134l69 -70v-272l137 -137v-340h273v819h137v-887l-70 -69h-680zM311 991v205l68 68h342v-138h-277v-135h-133z" />
<glyph unicode="&#xfb;" horiz-adv-x="958" d="M37 -33v817l69 70h134l69 -70v-272l137 -137v-340h273v819h137v-887l-70 -69h-680zM174 991v203l70 70h407l70 -70v-203h-137v135h-273v-135h-137z" />
<glyph unicode="&#xfc;" horiz-adv-x="958" d="M29 1061v133l69 70h205l70 -70v-133l-70 -70h-205zM31 -33v817l69 70h133l70 -70v-272l137 -137v-340h273v819h137v-887l-70 -69h-680zM508 1061v133l70 70h202l70 -70v-133l-70 -70h-202z" />
<glyph unicode="&#xfd;" horiz-adv-x="0" />
<glyph unicode="&#xff;" horiz-adv-x="958" d="M20 -35v819l70 70h272l70 -70v-407l-137 -137v-205h410v819h137v-1296l-70 -70h-752v137h685v273h-617zM20 1061v133l70 70h205l70 -70v-133l-70 -70h-205zM500 1061v133l69 70h203l70 -70v-133l-70 -70h-203z" />
<glyph unicode="&#x152;" horiz-adv-x="1757" d="M61 -33v1090l70 69h1432v-135h-547v-274h547v-135h-410v-547h410v-137h-1432zM199 35h546v610l-139 141v205l-407 -2v-954z" />
<glyph unicode="&#x153;" horiz-adv-x="1622" d="M59 -31v815l70 70h612l37 -66l33 66h543l69 -70v-409l-67 -68h-340v-272h272v137h137v-207l-67 -67h-547l-33 67l-35 -67h-612zM334 512l135 -135v-342h135v682h-270v-205zM881 444h407v273h-407v-273z" />
<glyph unicode="&#x178;" horiz-adv-x="2252" d="M135 -307l78 43l57 26v820l140 139v405l69 138l135 137l138 67h544l138 -67l139 -139l65 -136v-405l138 -139v-813l51 -27l82 -47v-207h-475v274h-820v-274h-479v205zM205 -311v-131h338v131l-135 73v818h-68v-818zM475 -102v-136h68v136h-68zM475 444h207v-342h-205 v-135h1092v66h-273v889h-819v-136h750v-274h-752v-68zM477 582h682v135h-682v-135zM479 991h1090v131l-68 138l-74 69l-133 72h-540l-136 -72l-71 -72l-68 -133v-133zM545 172h69v203h-69v-203zM612 1057v139h138v-139h-138zM614 -102v-68h136v68h-136zM750 102v342h206 v-342h-206zM817 1057v207h207v-207h-207zM819 -102v-68h203v68h-203zM819 172h66v203h-66v-203zM887 1126h67v68h-67v-68zM1022 102v342h207v-342h-207zM1090 172h69v205h-69v-205zM1092 -102v-68h135v68h-135zM1161 1126v70h66v68h71v-68h66v-70h-66v-67h-71v67h-66z M1298 -102v-68h134v68h-134zM1366 102h203v205h-203v-205zM1366 377h203v545h-203v-545zM1432 442v344h69v-344h-69zM1434 172v68h69v-68h-69zM1503 -102v-136h66v136h-66zM1503 -313v-129h338v127l-135 77v818h-68v-818z" />
<glyph unicode="&#x2000;" horiz-adv-x="784" />
<glyph unicode="&#x2001;" horiz-adv-x="1569" />
<glyph unicode="&#x2002;" horiz-adv-x="784" />
<glyph unicode="&#x2003;" horiz-adv-x="1569" />
<glyph unicode="&#x2004;" horiz-adv-x="523" />
<glyph unicode="&#x2005;" horiz-adv-x="392" />
<glyph unicode="&#x2006;" horiz-adv-x="261" />
<glyph unicode="&#x2007;" horiz-adv-x="261" />
<glyph unicode="&#x2008;" horiz-adv-x="196" />
<glyph unicode="&#x2009;" horiz-adv-x="313" />
<glyph unicode="&#x200a;" horiz-adv-x="87" />
<glyph unicode="&#x2010;" horiz-adv-x="856" d="M72 440v138h614v-138h-614z" />
<glyph unicode="&#x2011;" horiz-adv-x="856" d="M72 440v138h614v-138h-614z" />
<glyph unicode="&#x2012;" horiz-adv-x="856" d="M72 440v138h614v-138h-614z" />
<glyph unicode="&#x2013;" d="M51 440v138h922v-138h-922z" />
<glyph unicode="&#x2014;" horiz-adv-x="1441" d="M92 440v138h1127v-138h-1127z" />
<glyph unicode="&#x2018;" horiz-adv-x="630" d="M113 649v477h139v-272h137l68 -68v-137l-68 -67h-209z" />
<glyph unicode="&#x2019;" horiz-adv-x="630" d="M135 922v137l68 67h205l67 -67v-477h-135v272h-137z" />
<glyph unicode="&#x201c;" horiz-adv-x="1081" d="M80 649v477h139v-272h135l68 -68v-137l-68 -67h-207zM559 649v477h137v-272h138l67 -68v-137l-67 -67h-207z" />
<glyph unicode="&#x201d;" horiz-adv-x="1081" d="M70 924v133l69 69h203l70 -69v-475h-140v272h-133zM547 924v133l69 69h203l70 -69v-475h-137v272h-136z" />
<glyph unicode="&#x2022;" horiz-adv-x="901" d="M76 240v546l67 68h545l68 -68v-546l-68 -68h-545z" />
<glyph unicode="&#x2026;" horiz-adv-x="2027" d="M176 -35v139l68 68h205l67 -68v-139l-67 -67h-205zM793 -35v139l67 68h203l67 -68v-139l-67 -67h-203zM1407 -35v139l68 68h202l68 -68v-139l-68 -67h-202z" />
<glyph unicode="&#x202f;" horiz-adv-x="313" />
<glyph unicode="&#x205f;" horiz-adv-x="392" />
<glyph unicode="&#x2122;" horiz-adv-x="1036" d="M70 1059v67h206v-67h-67v-342h-68v342h-71zM414 717v342l67 67h342l68 -67v-342h-68v342h-137v-342h-68v342h-137v-342h-67z" />
<glyph unicode="&#xe000;" horiz-adv-x="849" d="M0 0v850h850v-850h-850z" />
</font>
</defs>
</svg>
